# Blender v2.78 (sub 0) OBJ File: ''
# www.blender.org
mtllib rook.mtl
o Cylinder
v -0.222491 -0.423949 -0.537142
v 0.000000 -0.423949 -0.581398
v 0.000000 -0.128166 -0.581398
v -0.222491 -0.128166 -0.537142
v 0.537142 -0.423949 -0.222491
v 0.581398 -0.423949 -0.000000
v 0.581398 -0.128166 -0.000000
v 0.537142 -0.128166 -0.222491
v 0.222491 -0.128166 -0.537142
v 0.222491 0.100267 -0.537142
v 0.000000 0.100267 -0.581398
v 0.222491 -0.423949 -0.537142
v 0.222491 -0.128166 0.537141
v 0.222491 0.100267 0.537141
v 0.411110 0.100267 0.411110
v 0.411110 -0.128166 0.411110
v 0.411110 -0.423949 0.411110
v 0.222491 -0.423949 0.537141
v -0.537141 -0.423949 -0.222493
v -0.411110 -0.423949 -0.411112
v -0.411110 -0.128166 -0.411111
v -0.537141 -0.128166 -0.222493
v 0.537142 -0.128166 0.222491
v 0.537142 0.100267 0.222492
v 0.581398 0.100267 0.000000
v 0.537142 -0.423949 0.222491
v -0.222491 0.100267 -0.537142
v -0.411110 0.100267 -0.411111
v 0.411110 -0.423949 -0.411112
v 0.411110 -0.128166 -0.411111
v -0.537141 -0.128166 0.222491
v -0.537141 0.100267 0.222492
v -0.411110 0.100267 0.411110
v -0.411110 -0.128166 0.411110
v -0.411110 -0.423949 0.411110
v -0.537141 -0.423949 0.222491
v -0.581398 -0.423949 -0.000000
v -0.581398 -0.128166 -0.000000
v 0.000000 -0.423950 0.581398
v 0.000000 -0.128167 0.581398
v -0.222491 -0.128166 0.537141
v -0.222491 0.100267 0.537141
v 0.000000 0.100266 0.581398
v -0.222491 -0.423949 0.537141
v 0.537142 0.100267 -0.222491
v 0.411110 0.100267 -0.411111
v -0.537141 0.100267 -0.222492
v -0.581398 0.100267 0.000000
v -0.182995 -0.423949 0.441787
v 0.000000 -0.423950 0.478188
v 0.182994 -0.423949 0.441787
v 0.338130 -0.423949 0.338130
v 0.441788 -0.423949 0.182994
v 0.478188 -0.423949 -0.000000
v 0.441788 -0.423949 0.182994
v 0.478188 -0.423949 -0.000000
v 0.441788 -0.423949 -0.182994
v 0.441788 -0.423949 -0.182994
v 0.338130 -0.423949 -0.338131
v 0.182994 -0.423949 -0.441789
v 0.338130 -0.423949 -0.338131
v 0.000000 -0.423949 -0.478188
v 0.000000 -0.423949 -0.478188
v -0.182995 -0.423949 -0.441789
v -0.182995 -0.423949 -0.441789
v -0.338130 -0.423949 -0.338131
v -0.441787 -0.423949 -0.182996
v -0.441787 -0.423949 -0.182996
v -0.478188 -0.423949 -0.000000
v -0.441787 -0.423949 0.182994
v -0.338130 -0.423949 0.338130
v 0.338130 -0.423949 0.338130
v 0.000000 -0.423950 0.478188
v -0.182995 -0.423949 0.441787
v -0.338130 -0.423949 0.338130
v -0.441787 -0.423949 0.182994
v -0.511301 -2.466349 -0.511302
v -0.385331 -2.282798 -0.385331
v -0.208539 -2.282798 -0.503460
v -0.276714 -2.466349 -0.668048
v -0.723088 -2.466349 -0.000000
v -0.544940 -2.282798 -0.000000
v -0.503459 -2.282798 -0.208540
v -0.668046 -2.466349 -0.276715
v 0.276714 -2.466349 -0.668047
v 0.208540 -2.282798 -0.503459
v 0.385331 -2.282798 -0.385331
v 0.511301 -2.466349 -0.511301
v 0.000000 -2.466351 0.723088
v -0.276714 -2.466349 0.668046
v -0.276714 -2.620193 0.668046
v 0.000000 -2.620193 0.723088
v 0.511301 -2.466349 0.511301
v 0.385331 -2.282798 0.385330
v 0.208540 -2.282798 0.503459
v 0.276714 -2.466349 0.668046
v -0.511301 -2.466349 0.511301
v -0.385331 -2.282798 0.385331
v -0.503459 -2.282798 0.208539
v -0.668047 -2.466349 0.276714
v 0.503459 -2.282798 -0.208540
v 0.544940 -2.282798 -0.000000
v 0.276714 -2.620193 0.668046
v 0.668047 -2.466349 0.276714
v 0.503459 -2.282798 0.208539
v -0.338130 -0.128166 0.338130
v -0.338130 0.100267 0.338130
v -0.441787 0.100267 0.182995
v -0.441787 -0.128166 0.182995
v -0.478188 -0.423949 -0.000000
v 0.182994 -0.423949 0.441787
v -0.668046 -2.620193 -0.276715
v -0.723088 -2.620193 -0.000000
v -0.208539 -2.282798 0.503459
v 0.723089 -2.466349 -0.000000
v 0.668047 -2.466349 -0.276714
v 0.000000 -2.282798 0.544940
v 0.000000 -2.282798 -0.544940
v 0.000000 -2.466349 -0.723089
v -0.478188 -0.128166 -0.000000
v -0.478188 0.100267 0.000000
v -0.441787 0.100267 -0.182995
v -0.441787 -0.128166 -0.182996
v 0.338130 -0.128166 -0.338131
v 0.338130 0.100267 -0.338131
v 0.441789 0.100267 -0.182994
v 0.441788 -0.128166 -0.182994
v 0.182994 -0.423949 -0.441789
v 0.276714 -2.620193 -0.668047
v 0.000000 -2.620193 -0.723089
v 0.478188 -0.128166 -0.000000
v -0.338130 -0.423949 -0.338131
v -0.276714 -2.620193 -0.668048
v -0.182995 -0.128166 0.441787
v -0.511301 -2.620193 -0.511302
v 0.511301 -2.620193 -0.511301
v 0.668047 -2.620193 -0.276714
v 0.723089 -2.620193 -0.000000
v 0.668047 -2.620193 0.276714
v 0.511301 -2.620193 0.511301
v -0.511301 -2.620193 0.511301
v -0.668047 -2.620193 0.276714
v 0.182994 -0.128166 0.441787
v 0.000000 -0.128167 0.478188
v 0.441788 -0.128166 0.182995
v 0.441789 0.100267 0.182995
v -0.338130 -0.128166 -0.338131
v 0.000000 -0.128166 -0.478188
v -0.182995 -0.128166 -0.441788
v 0.182995 0.100267 0.441787
v 0.338130 -0.128166 0.338130
v 0.182994 -0.128166 -0.441788
v 0.000000 0.100266 0.478188
v 0.000000 0.100267 -0.478188
v 0.182995 0.100267 -0.441788
v 0.478188 0.100267 0.000000
v 0.338130 0.100267 0.338130
v -0.182994 0.100267 0.441787
v -0.338130 0.100267 -0.338131
v -0.182994 0.100267 -0.441788
vt 0.9751 0.6597
vt 0.9027 0.6598
vt 0.9027 0.6080
vt 0.9751 0.6079
vt 0.8468 0.7479
vt 0.9191 0.7478
vt 0.9191 0.7996
vt 0.8468 0.7997
vt 0.9026 0.5561
vt 0.9749 0.5561
vt 0.8469 0.6080
vt 0.8468 0.5562
vt 0.0723 0.5561
vt 0.0000 0.5562
vt 0.0001 0.5123
vt 0.0725 0.5122
vt 0.1283 0.5121
vt 0.1282 0.5561
vt 0.0001 0.8515
vt 0.0725 0.8514
vt 0.0727 0.8954
vt 0.0004 0.8955
vt 0.9192 0.8514
vt 0.8469 0.8515
vt 0.9749 0.7995
vt 0.9751 0.8514
vt 0.9749 0.7036
vt 0.9026 0.7037
vt 0.8468 0.7038
vt 0.8469 0.6599
vt 0.9023 0.5122
vt 0.9747 0.5121
vt 0.0723 0.7478
vt 0.0000 0.7479
vt 0.0001 0.7039
vt 0.0725 0.7039
vt 0.1283 0.7038
vt 0.1282 0.7477
vt 0.9195 0.8954
vt 0.8472 0.8955
vt 0.0723 0.7996
vt 0.0000 0.7997
vt 0.0723 0.6079
vt 0.0000 0.6080
vt 0.0725 0.6598
vt 0.0001 0.6599
vt 0.1282 0.6079
vt 0.1283 0.6597
vt 0.0727 0.7037
vt 0.0004 0.7038
vt 0.8469 0.7039
vt 0.9192 0.7039
vt 0.9751 0.7038
vt 0.9749 0.7477
vt 0.1282 0.7995
vt 0.1283 0.8514
vt 0.2634 0.7068
vt 0.2956 0.7375
vt 0.2816 0.7575
vt 0.2424 0.7202
vt 0.3329 0.7778
vt 0.3378 0.7542
vt 0.3883 0.7778
vt 0.3834 0.7542
vt 0.4396 0.7575
vt 0.4255 0.7375
vt 0.4788 0.7202
vt 0.4255 0.7375
vt 0.4578 0.7068
vt 0.4578 0.7068
vt 0.4753 0.6667
vt 0.5000 0.6714
vt 0.4753 0.6667
vt 0.4753 0.6232
vt 0.5000 0.6185
vt 0.4788 0.5697
vt 0.4753 0.6232
vt 0.4578 0.5831
vt 0.4396 0.5323
vt 0.4255 0.5523
vt 0.4255 0.5523
vt 0.3834 0.5357
vt 0.3883 0.5121
vt 0.3834 0.5357
vt 0.3378 0.5357
vt 0.3329 0.5121
vt 0.2816 0.5323
vt 0.2956 0.5523
vt 0.2956 0.5523
vt 0.2634 0.5831
vt 0.2424 0.5697
vt 0.2212 0.6185
vt 0.2459 0.6232
vt 0.2459 0.6667
vt 0.2212 0.6714
vt 0.2459 0.6232
vt 0.2459 0.6667
vt 0.2634 0.7068
vt 0.2956 0.7375
vt 0.3834 0.7542
vt 0.1283 0.7055
vt 0.1719 0.7055
vt 0.1820 0.7540
vt 0.1418 0.7699
vt 0.1250 0.0358
vt 0.1250 0.0789
vt 0.0740 0.0789
vt 0.0574 0.0359
vt 0.7702 0.8425
vt 0.8105 0.8584
vt 0.8003 0.9069
vt 0.7568 0.9069
vt 0.6250 0.0358
vt 0.5574 0.0359
vt 0.5574 0.0001
vt 0.6250 0.0000
vt 0.1283 0.8344
vt 0.1719 0.8344
vt 0.1820 0.8829
vt 0.1418 0.8988
vt 0.0803 0.5120
vt 0.0423 0.5121
vt 0.0308 0.0791
vt 0.1283 0.5766
vt 0.1718 0.5766
vt 0.1820 0.6251
vt 0.1418 0.6410
vt 0.4692 0.0791
vt 0.4577 0.5121
vt 0.4197 0.5120
vt 0.4260 0.0789
vt 0.9692 0.0791
vt 0.9577 0.5121
vt 0.9197 0.5120
vt 0.9260 0.0789
vt 0.8750 0.5119
vt 0.8750 0.0789
vt 0.6926 0.0359
vt 0.6926 0.0001
vt 0.1418 0.7699
vt 0.1820 0.7858
vt 0.5723 1.0000
vt 0.5000 1.0000
vt 0.5002 0.9639
vt 0.5725 0.9639
vt 0.6283 0.9639
vt 0.6282 1.0000
vt 0.0000 0.0000
vt 0.0000 0.0000
vt 0.0000 0.0000
vt 0.0000 0.0000
vt 0.2192 0.0791
vt 0.2077 0.5121
vt 0.1697 0.5120
vt 0.1760 0.0789
vt 0.0000 0.0000
vt 0.0000 0.0000
vt 0.0000 0.0000
vt 0.0000 0.0000
vt 0.1250 0.5119
vt 0.7192 0.0791
vt 0.7077 0.5121
vt 0.6697 0.5120
vt 0.6760 0.0789
vt 0.0574 0.0001
vt 0.1250 0.0000
vt 0.8303 0.5120
vt 0.8240 0.0789
vt 0.0000 0.0000
vt 0.0000 0.0000
vt 0.0000 0.0000
vt 0.0000 0.0000
vt 0.7923 0.5121
vt 0.7808 0.0791
vt 0.1418 0.6410
vt 0.1820 0.6569
vt 0.5740 0.0789
vt 0.5803 0.5120
vt 0.5423 0.5121
vt 0.5308 0.0791
vt 0.3240 0.0789
vt 0.3303 0.5120
vt 0.2923 0.5121
vt 0.2808 0.0791
vt 0.1418 0.5121
vt 0.1820 0.5280
vt 0.8750 0.0358
vt 0.8074 0.0359
vt 0.9426 0.0359
vt 0.1926 0.0359
vt 0.8105 0.9555
vt 0.7702 0.9714
vt 0.6250 0.5119
vt 0.6250 0.0789
vt 0.4426 0.0359
vt 0.3750 0.0789
vt 0.3750 0.0358
vt 0.0000 0.0000
vt 0.0000 0.0000
vt 0.0000 0.0000
vt 0.0000 0.0000
vt 0.0000 0.0000
vt 0.0000 0.0000
vt 0.5725 0.9212
vt 0.5002 0.9212
vt 0.5002 0.8786
vt 0.5725 0.8786
vt 0.6283 0.8786
vt 0.6284 0.9212
vt 0.2773 0.7948
vt 0.3496 0.7948
vt 0.3494 0.8309
vt 0.2771 0.8309
vt 0.2212 0.8309
vt 0.2214 0.7948
vt 0.3074 0.0359
vt 0.3750 0.5119
vt 0.0000 0.0000
vt 0.0000 0.0000
vt 0.3074 0.0001
vt 0.3750 0.0000
vt 0.3493 0.8735
vt 0.2770 0.8735
vt 0.0000 0.0000
vt 0.0000 0.0000
vt 0.0000 0.0000
vt 0.0000 0.0000
vt 0.0000 0.0000
vt 0.0000 0.0000
vt 0.0000 0.0000
vt 0.0000 0.0000
vt 0.4426 0.0001
vt 0.4779 0.9523
vt 0.4056 0.9523
vt 0.4055 0.9161
vt 0.4778 0.9161
vt 0.0000 0.0000
vt 0.0000 0.0000
vt 0.0000 0.0000
vt 0.0000 0.0000
vt 0.7716 0.5373
vt 0.8204 0.5837
vt 0.8468 0.6444
vt 0.8468 0.7102
vt 0.8204 0.7709
vt 0.7716 0.8173
vt 0.7079 0.8425
vt 0.6389 0.8425
vt 0.5752 0.8173
vt 0.5264 0.7709
vt 0.5000 0.7102
vt 0.5000 0.6444
vt 0.5264 0.5837
vt 0.5752 0.5373
vt 0.6389 0.5121
vt 0.7079 0.5121
vt 0.2500 0.0362
vt 0.2500 0.0003
vt 0.5000 0.0362
vt 0.5000 0.0003
vt 0.2500 0.0362
vt 0.1926 0.0001
vt 0.2500 0.0003
vt 0.5000 0.0362
vt 0.5000 0.0003
vt 0.8074 0.0001
vt 0.8750 0.0000
vt 0.9426 0.0001
vt 0.0000 0.0362
vt 0.0000 0.0003
vt 0.7500 0.0362
vt 0.7500 0.0003
vt 1.0000 0.0362
vt 1.0000 0.0003
vt 0.4777 0.8735
vt 0.4054 0.8735
vt 0.4055 0.8309
vt 0.4778 0.8309
vt 0.9938 0.8955
vt 0.9938 0.9487
vt 0.9705 0.9487
vt 0.9705 0.8955
vt 0.1820 0.7249
vt 0.1820 0.6717
vt 0.2072 0.6717
vt 0.2072 0.7249
vt 0.9751 0.8850
vt 0.9751 0.8318
vt 0.9984 0.8317
vt 0.9984 0.8849
vt 0.8468 0.9001
vt 0.8715 0.8955
vt 0.8715 0.9483
vt 0.8468 0.9436
vt 0.1820 0.8353
vt 0.2067 0.8306
vt 0.2067 0.8835
vt 0.1820 0.8788
vt 0.0742 0.9001
vt 0.0990 0.8955
vt 0.0990 0.9483
vt 0.0742 0.9436
vt 0.0247 0.9001
vt 0.0495 0.8955
vt 0.0495 0.9483
vt 0.0247 0.9436
vt 0.0000 0.9001
vt 0.0247 0.8955
vt 0.0247 0.9483
vt 0.0000 0.9436
vt 0.9210 0.9001
vt 0.9457 0.8955
vt 0.9457 0.9483
vt 0.9210 0.9436
vt 0.9984 0.6187
vt 0.9984 0.6719
vt 0.9751 0.6719
vt 0.9751 0.6187
vt 0.8715 0.9001
vt 0.8963 0.8955
vt 0.8963 0.9483
vt 0.8715 0.9436
vt 0.1820 0.7825
vt 0.2067 0.7778
vt 0.2067 0.8306
vt 0.1820 0.8259
vt 0.1820 0.6717
vt 0.1820 0.6185
vt 0.2072 0.6185
vt 0.2072 0.6717
vt 0.3496 0.9523
vt 0.2773 0.9523
vt 0.2771 0.9161
vt 0.3494 0.9161
vt 0.7009 0.9212
vt 0.6286 0.9212
vt 0.6285 0.8786
vt 0.7009 0.8786
vt 0.7567 0.8786
vt 0.7568 0.9212
vt 0.2212 0.9161
vt 0.2212 0.8735
vt 0.6284 0.8425
vt 0.7007 0.8425
vt 0.4056 0.7948
vt 0.4779 0.7948
vt 0.3496 0.8309
vt 0.3498 0.7948
vt 0.5000 0.8425
vt 0.5723 0.8425
vt 0.3496 0.9161
vt 0.3496 0.8735
vt 0.7007 1.0000
vt 0.6284 1.0000
vt 0.6285 0.9639
vt 0.7009 0.9639
vt 0.7567 0.9639
vt 0.7565 1.0000
vt 0.0495 0.9001
vt 0.0742 0.8955
vt 0.0742 0.9483
vt 0.0495 0.9436
vt 0.8963 0.9001
vt 0.9210 0.8955
vt 0.9210 0.9483
vt 0.8963 0.9436
vt 0.9457 0.9001
vt 0.9705 0.8955
vt 0.9705 0.9483
vt 0.9457 0.9436
vt 0.0990 0.9001
vt 0.1237 0.8955
vt 0.1237 0.9483
vt 0.0990 0.9436
vt 0.8105 0.8472
vt 0.8352 0.8425
vt 0.8352 0.8953
vt 0.8105 0.8906
vt 0.1820 0.7296
vt 0.2067 0.7249
vt 0.2067 0.7778
vt 0.1820 0.7731
vt 0.1820 0.8881
vt 0.2067 0.8835
vt 0.2067 0.9363
vt 0.1820 0.9316
vt 0.8105 0.9000
vt 0.8352 0.8953
vt 0.8352 0.9482
vt 0.8105 0.9435
vt 0.9751 0.8317
vt 0.9751 0.7784
vt 0.9984 0.7785
vt 0.9984 0.8317
vt 0.4958 0.8312
vt 0.4958 0.8844
vt 0.4779 0.8843
vt 0.4779 0.8311
vt 0.2213 0.7778
vt 0.2771 0.7778
vt 0.9751 0.7784
vt 0.9751 0.7252
vt 0.9984 0.7252
vt 0.9984 0.7784
vt 0.9984 0.6719
vt 0.9984 0.7251
vt 0.9751 0.7252
vt 0.9751 0.6720
vt 0.3497 0.7778
vt 0.4055 0.7778
vt 0.9984 0.5121
vt 0.9984 0.5653
vt 0.9751 0.5654
vt 0.9751 0.5122
vt 0.4958 0.7779
vt 0.4958 0.8311
vt 0.4779 0.8310
vt 0.4779 0.7778
vt 0.2072 0.5121
vt 0.2072 0.5653
vt 0.1820 0.5653
vt 0.1820 0.5121
vt 0.1820 0.6185
vt 0.1820 0.5653
vt 0.2072 0.5653
vt 0.2072 0.6185
vt 0.9751 0.6186
vt 0.9751 0.5654
vt 0.9984 0.5654
vt 0.9984 0.6187
vn -0.1951 0.0000 -0.9808
vn 0.9808 -0.0000 -0.1951
vn 0.1951 0.0000 -0.9808
vn 0.5556 -0.0000 0.8315
vn -0.8315 0.0000 -0.5556
vn 0.9808 -0.0000 0.1951
vn -0.5556 0.0000 -0.8315
vn 0.5556 0.0000 -0.8315
vn -0.8315 -0.0000 0.5556
vn 0.8315 -0.0000 0.5556
vn -0.9808 0.0000 0.1951
vn 0.1951 -0.0000 0.9808
vn -0.1951 -0.0000 0.9808
vn -0.5556 -0.0000 0.8315
vn 0.8315 0.0000 -0.5556
vn -0.9808 0.0000 -0.1951
vn -0.0000 -1.0000 -0.0000
vn -0.0000 1.0000 0.0000
vn -0.4024 0.6895 -0.6022
vn -0.7104 0.6895 -0.1413
vn 0.4024 0.6895 -0.6022
vn 0.4024 0.6895 0.6022
vn -0.8310 0.0352 -0.5552
vn -0.6022 0.6895 0.4024
vn -0.5552 0.0352 -0.8310
vn 0.8310 0.0352 -0.5552
vn 0.9802 0.0352 -0.1950
vn 0.6022 0.6895 0.4024
vn 0.8683 0.3339 -0.3667
vn 0.8155 -0.1951 -0.5449
vn 0.9239 0.0000 -0.3827
vn 0.6711 0.3339 -0.6619
vn 0.2347 0.5884 -0.7738
vn 0.8047 0.5884 0.0793
vn 0.0000 0.0000 1.0000
vn -0.8310 0.0352 0.5552
vn -0.9802 0.0352 0.1950
vn 0.5552 0.0352 0.8310
vn -0.9802 0.0352 -0.1950
vn 0.9802 0.0352 0.1950
vn 0.8310 0.0352 0.5552
vn -0.6022 0.6895 -0.4024
vn -0.5552 0.0352 0.8310
vn 0.5552 0.0352 -0.8310
vn -0.4024 0.6895 0.6022
vn 0.7104 0.6895 0.1413
vn 0.7104 0.6895 -0.1413
vn -0.7104 0.6895 0.1413
vn 0.6022 0.6895 -0.4024
vn 0.1950 0.0352 0.9802
vn -0.1413 0.6895 0.7104
vn -0.1413 0.6895 -0.7104
vn 0.8733 0.3339 0.3547
vn 1.0000 0.0000 -0.0000
vn 0.9239 -0.0000 0.3827
vn 0.9426 0.3339 0.0065
vn 0.7131 0.5884 -0.3812
vn 0.5130 0.5884 0.6250
vn -0.8683 0.3339 0.3667
vn -0.8155 -0.1951 0.5449
vn -0.9239 0.0000 0.3827
vn -0.6711 0.3339 0.6619
vn -0.2347 0.5884 0.7738
vn -0.8047 0.5884 -0.0793
vn 0.1413 0.6895 -0.7104
vn -0.1950 0.0352 -0.9802
vn -0.9619 -0.1951 0.1913
vn -0.8733 0.3339 -0.3547
vn 0.5449 -0.1951 -0.8155
vn 0.0065 0.3339 -0.9426
vn 0.3827 0.0000 -0.9239
vn 0.1950 0.0352 -0.9802
vn 0.1413 0.6895 0.7104
vn -0.0000 0.0000 -1.0000
vn 0.3547 0.3339 -0.8733
vn -0.6619 0.3339 -0.6711
vn -0.3827 0.0000 -0.9239
vn -0.1950 0.0352 0.9802
vn 0.2880 0.6585 0.6953
vn 0.0000 0.6585 0.7526
vn -0.2880 0.6585 0.6953
vn -0.7131 0.5884 0.3812
vn -0.9426 0.3339 -0.0065
vn 0.3667 0.3339 0.8683
vn -0.5322 0.6585 0.5322
vn 0.2880 0.6585 -0.6953
vn 0.7526 0.6585 0.0000
vn -0.6953 0.6585 0.2880
vn -0.3547 0.3339 0.8733
vn -0.7526 0.6585 0.0000
vn 0.6953 0.6585 -0.2880
vn 0.6619 0.3339 0.6711
vn -0.2880 0.6585 -0.6953
vn 0.0000 0.6585 -0.7526
vn 0.5322 0.6585 0.5322
vn -0.6953 0.6585 -0.2880
vn -0.7738 0.5884 -0.2347
vn -0.3667 0.3339 -0.8683
vn 0.5322 0.6585 -0.5322
vn -0.5322 0.6585 -0.5322
vn 0.6953 0.6585 0.2880
vn -0.0065 0.3339 0.9426
vn 0.6250 0.5884 -0.5130
vn -0.8155 -0.1951 -0.5449
vn -0.9239 0.0000 -0.3827
vn -0.3827 -0.0000 0.9239
vn 0.3812 0.5884 0.7131
vn -0.6250 0.5884 0.5130
vn -0.9619 -0.1951 -0.1913
vn -0.5130 0.5884 -0.6250
vn -0.5449 -0.1951 0.8155
vn -0.5449 -0.1951 -0.8155
vn 0.0793 0.5884 -0.8047
vn 0.7071 -0.0000 0.7071
vn -0.3812 0.5884 -0.7131
vn 0.5449 -0.1951 0.8155
vn 0.7738 0.5884 0.2347
vn -0.0793 0.5884 0.8047
vn 0.1913 -0.1951 0.9619
usemtl White.001
s off
f 1/1/1 4/2/1 3/3/1 2/4/1
f 5/5/2 8/6/2 7/7/2 6/8/2
f 9/9/3 12/10/3 2/4/3 3/3/3 11/11/3 10/12/3
f 13/13/4 18/14/4 17/15/4 16/16/4 15/17/4 14/18/4
f 19/19/5 22/20/5 21/21/5 20/22/5
f 23/23/6 26/24/6 6/8/6 7/7/6 25/25/6 24/26/6
f 4/2/7 1/1/7 20/27/7 21/28/7 28/29/7 27/30/7
f 12/10/8 9/9/8 30/31/8 29/32/8
f 31/33/9 36/34/9 35/35/9 34/36/9 33/37/9 32/38/9
f 26/24/10 23/23/10 16/39/10 17/40/10
f 36/34/11 31/33/11 38/41/11 37/42/11
f 18/14/12 13/13/12 40/43/12 39/44/12
f 41/45/13 44/46/13 39/44/13 40/43/13 43/47/13 42/48/13
f 44/46/14 41/45/14 34/49/14 35/50/14
f 8/6/15 5/5/15 29/51/15 30/52/15 46/53/15 45/54/15
f 22/20/16 19/19/16 37/42/16 38/41/16 48/55/16 47/56/16
f 49/57/17 50/58/17 39/59/17 44/60/17
f 18/61/17 39/59/17 50/58/17 51/62/17
f 17/63/17 18/61/17 51/62/17 52/64/17
f 26/65/17 17/63/17 52/64/17 53/66/17
f 6/67/17 26/65/17 55/68/17 54/69/17
f 56/70/17 57/71/17 5/72/17 6/67/17
f 58/73/17 59/74/17 29/75/17 5/72/17
f 12/76/17 29/75/17 61/77/17 60/78/17
f 2/79/17 12/76/17 60/78/17 62/80/17
f 63/81/17 64/82/17 1/83/17 2/79/17
f 65/84/17 66/85/17 20/86/17 1/83/17
f 19/87/17 20/86/17 66/85/17 67/88/17
f 19/87/17 68/89/17 69/90/17 37/91/17
f 36/92/17 37/91/17 69/90/17 70/93/17
f 70/93/17 71/94/17 35/95/17 36/92/17
f 44/60/17 35/95/17 71/94/17 49/57/17
s 1
f 53/66/18 55/68/18 54/69/18 56/70/18 57/71/18 58/73/18 59/74/18 61/77/18 60/78/18 62/80/18 63/81/18 64/82/18 65/84/18 66/85/18 67/88/18 68/89/18 69/90/18 70/93/18 76/96/18 75/97/18 71/94/18 49/57/18 74/98/18 73/99/18 50/58/18 51/62/18 72/100/18 52/64/18
usemtl White.001_white.png
f 77/101/19 78/102/19 79/103/19 80/104/19
f 81/105/20 82/106/20 83/107/20 84/108/20
f 85/109/21 86/110/21 87/111/21 88/112/21
f 89/113/13 90/114/13 91/115/13 92/116/13
f 93/117/22 94/118/22 95/119/22 96/120/22
f 83/107/23 67/121/23 66/122/23 78/123/23
f 97/124/24 98/125/24 99/126/24 100/127/24
f 78/128/25 66/129/25 65/130/25 79/131/25
f 87/132/26 61/133/26 57/134/26 101/135/26
f 101/135/27 57/134/27 56/136/27 102/137/27
f 96/138/12 89/113/12 92/116/12 103/139/12
f 104/140/28 105/141/28 94/118/28 93/117/28
f 106/142/29 75/143/30 76/144/31 109/145/32 108/146/33 107/147/34
f 53/148/35 55/149/35 54/150/35 56/151/35
f 98/152/36 71/153/36 70/154/36 99/155/36
f 62/156/35 63/157/35 64/158/35 65/159/35
f 99/155/37 70/154/37 110/160/37 82/106/37
f 94/161/38 72/162/38 111/163/38 95/164/38
f 81/105/16 84/108/16 112/165/16 113/166/16
f 82/106/39 110/160/39 67/121/39 83/107/39
f 102/137/40 56/136/40 53/167/40 105/168/40
f 111/169/35 51/170/35 52/171/35 72/172/35
f 105/168/41 53/167/41 72/173/41 94/174/41
f 84/175/42 83/176/42 78/102/42 77/101/42
f 114/177/43 74/178/43 71/179/43 98/180/43
f 86/181/44 60/182/44 61/183/44 87/184/44
f 90/185/45 114/186/45 98/125/45 97/124/45
f 115/187/46 102/137/46 105/168/46 104/188/46
f 116/189/47 101/135/47 102/137/47 115/187/47
f 100/190/48 99/155/48 82/106/48 81/105/48
f 88/112/49 87/111/49 101/191/49 116/192/49
f 95/164/50 111/163/50 73/193/50 117/194/50
f 89/113/51 117/194/51 114/177/51 90/114/51
f 80/195/52 79/131/52 118/196/52 119/197/52
f 57/198/35 58/199/35 59/200/35 61/201/35
f 73/202/35 50/203/35 51/170/35 111/169/35
f 120/204/53 69/205/54 68/206/55 123/207/56 122/208/57 121/209/58
f 124/210/59 59/211/60 58/212/61 127/213/62 126/214/63 125/215/64
f 119/197/65 118/196/65 86/181/65 85/216/65
f 79/131/66 65/130/66 62/217/66 118/196/66
f 60/218/35 128/219/35 63/157/35 62/156/35
f 119/197/3 85/216/3 129/220/3 130/221/3
f 54/222/67 131/223/68 127/213/62 58/212/61
f 69/205/54 120/204/53 109/145/32 76/144/31
f 61/201/35 59/200/35 128/219/35 60/218/35
f 70/224/35 76/225/35 75/226/35 71/227/35
f 74/228/35 49/229/35 50/203/35 73/202/35
f 65/159/35 64/158/35 132/230/35 66/231/35
f 80/195/1 119/197/1 130/221/1 133/232/1
f 75/233/69 106/234/29 134/235/70 49/236/71
f 67/237/35 68/238/35 69/239/35 110/240/35
f 110/240/35 69/239/35 76/225/35 70/224/35
f 66/231/35 132/230/35 68/238/35 67/237/35
f 72/172/35 52/171/35 55/149/35 53/148/35
f 56/151/35 54/150/35 58/199/35 57/198/35
f 71/227/35 75/226/35 49/229/35 74/228/35
f 135/241/17 133/242/17 130/243/17 129/244/17 136/245/17 137/246/17 138/247/17 139/248/17 140/249/17 103/250/17 92/251/17 91/252/17 141/253/17 142/254/17 113/255/17 112/256/17
f 85/216/8 88/257/8 136/258/8 129/220/8
f 90/114/14 97/259/14 141/260/14 91/115/14
f 97/261/9 100/190/9 142/262/9 141/263/9
f 77/264/7 80/195/7 133/232/7 135/265/7
f 115/187/6 104/188/6 139/266/6 138/267/6
f 116/189/2 115/187/2 138/267/2 137/268/2
f 100/190/11 81/105/11 113/166/11 142/262/11
f 84/108/5 77/269/5 135/270/5 112/165/5
f 104/188/10 93/271/10 140/272/10 139/266/10
f 88/273/15 116/189/15 137/268/15 136/274/15
f 118/196/72 62/217/72 60/182/72 86/181/72
f 93/271/4 96/138/4 103/139/4 140/272/4
f 96/138/73 95/164/73 117/194/73 89/113/73
f 50/275/74 144/276/75 143/277/76 51/278/77
f 117/194/78 73/193/78 74/178/78 114/177/78
f 8/279/79 45/280/79 126/281/63 127/282/62
f 120/283/53 121/284/58 48/285/80 38/286/80
f 23/287/81 24/288/81 146/289/82 145/290/83
f 147/291/84 21/292/85 22/293/86 123/294/56
f 144/295/75 40/296/87 13/297/88 143/298/76
f 148/299/89 3/300/90 4/301/91 149/302/92
f 120/303/53 38/304/80 31/305/93 109/306/32
f 131/307/68 7/308/94 8/309/79 127/310/62
f 106/311/29 34/312/95 41/313/96 134/314/70
f 13/315/88 14/316/88 150/317/97 143/318/76
f 151/319/98 16/320/99 23/321/81 145/322/83
f 124/323/59 30/324/100 9/325/101 152/326/102
f 144/327/75 153/328/103 43/329/87 40/330/87
f 52/331/104 151/332/98 145/333/83 55/334/105
f 148/335/89 63/336/35 128/337/106 152/338/102 155/339/107 154/340/108
f 131/223/68 54/222/109 55/334/105 145/333/83 146/341/82 156/342/110
f 59/343/111 124/344/59 152/338/102 128/337/106
f 151/345/98 52/346/112 51/278/77 143/277/76 150/347/97 157/348/113
f 132/349/114 147/350/84 123/207/56 68/206/55
f 144/276/75 50/275/74 49/236/71 134/235/70 158/351/115 153/352/103
f 147/353/84 132/354/114 64/355/116 149/356/92 160/357/117 159/358/118
f 63/336/35 148/335/89 149/356/92 64/355/119
f 126/359/63 45/360/79 46/361/100 125/362/64
f 108/363/33 32/364/93 33/365/95 107/366/34
f 150/367/97 14/368/88 15/369/99 157/370/113
f 155/371/107 10/372/101 11/373/90 154/374/108
f 160/375/117 27/376/91 28/377/85 159/378/118
f 122/379/57 47/380/86 48/381/80 121/382/58
f 158/383/115 42/384/96 43/385/87 153/386/103
f 146/387/82 24/388/81 25/389/94 156/390/110
f 4/391/91 27/392/91 160/393/117 149/394/92
f 147/395/84 159/396/118 28/397/85 21/398/85
f 124/210/59 125/215/64 46/399/100 30/400/100
f 9/401/101 10/402/101 155/403/107 152/404/102
f 41/405/96 42/406/96 158/407/115 134/408/70
f 151/345/98 157/348/113 15/409/99 16/410/99
f 22/411/86 47/412/86 122/413/57 123/414/56
f 106/415/29 107/416/34 33/417/95 34/418/95
f 148/419/89 154/420/108 11/421/90 3/422/90
f 131/423/68 156/424/110 25/425/94 7/426/94
f 31/427/93 32/428/93 108/429/33 109/430/32
